<?xml version="1.0" standalone="no"?>
<!DOCTYPE svg PUBLIC "-//W3C//DTD SVG 20010904//EN"
 "http://www.w3.org/TR/2001/REC-SVG-20010904/DTD/svg10.dtd">
<svg version="1.0" xmlns="http://www.w3.org/2000/svg"
 width="112.000000pt" height="112.000000pt" viewBox="0 0 112.000000 112.000000"
 preserveAspectRatio="xMidYMid meet">
<metadata>
Created by potrace 1.14, written by Peter Selinger 2001-2017
</metadata>
<g transform="translate(0.000000,112.000000) scale(0.100000,-0.100000)"
fill="#000000" stroke="none">
<path d="M1015 1101 c-16 -10 -38 -27 -48 -39 -17 -19 -20 -19 -58 -4 -29 11
-43 12 -51 4 -8 -8 -18 -5 -39 10 -34 26 -118 35 -159 18 -43 -18 -87 -71
-160 -193 -107 -181 -169 -237 -330 -303 -51 -20 -55 -25 -60 -60 -5 -35 -9
-39 -55 -54 -58 -19 -66 -39 -40 -106 22 -59 35 -67 76 -50 79 32 72 36 135
-71 61 -103 146 -203 173 -203 22 0 82 37 102 63 16 20 15 23 -21 71 -39 52
-80 127 -80 146 0 13 90 13 166 -1 32 -5 130 -33 217 -61 151 -48 159 -50 202
-38 26 7 54 24 65 38 21 27 47 99 38 107 -12 12 -55 -18 -65 -46 -13 -34 -62
-58 -101 -51 -62 12 -135 124 -144 221 -3 30 1 37 32 54 99 54 119 120 56 183
-28 28 -42 34 -76 34 l-42 0 7 36 c5 27 3 34 -6 28 -8 -4 -10 -3 -5 5 4 6 11
9 16 6 4 -3 30 13 56 35 62 51 93 62 125 44 13 -7 20 -13 16 -14 -5 0 -17 5
-28 10 -25 14 -24 10 11 -61 44 -85 89 -227 97 -300 7 -72 17 -70 -118 -26
-71 23 -76 23 -75 7 1 -10 21 -42 46 -71 25 -29 47 -55 50 -58 3 -4 20 -18 38
-33 l33 -27 32 19 c18 11 40 20 49 20 9 0 20 5 24 11 7 11 -39 7 -88 -7 -16
-5 -168 119 -168 137 0 5 31 -8 70 -28 69 -36 69 -36 125 -23 52 13 91 34 43
23 -17 -3 -19 -2 -9 5 28 20 -14 190 -79 322 l-37 75 47 23 c54 27 107 68 100
75 -3 3 -33 -12 -67 -34 -71 -45 -88 -47 -144 -19 l-40 21 -76 -70 c-42 -39
-79 -69 -81 -66 -3 2 1 11 7 19 7 8 9 21 5 27 -4 7 -3 9 4 5 6 -3 20 11 33 31
43 73 93 133 110 133 10 0 33 -9 52 -20 l33 -20 25 28 c82 92 83 94 34 63z
m-210 -97 c-20 -26 -43 -60 -51 -75 -8 -16 -17 -29 -20 -29 -9 0 37 77 68 115
43 51 44 43 3 -11z m-246 -166 c2 -123 61 -317 124 -414 17 -27 40 -61 50 -77
l18 -27 -53 20 c-34 13 -97 24 -173 31 -138 11 -148 17 -184 114 -33 87 -29
113 25 165 58 57 129 151 160 212 13 27 26 48 28 48 2 0 4 -32 5 -72z m198
-160 c1 -17 12 -42 24 -55 13 -12 21 -25 18 -27 -2 -2 -28 -18 -57 -36 -36
-22 -57 -29 -64 -22 -16 16 -59 145 -51 153 8 8 48 15 98 17 27 2 30 -1 32
-30z m-497 -118 c0 -10 -22 -24 -64 -40 -43 -16 -32 15 12 33 46 19 52 20 52
7z"/>
<path d="M884 588 l-19 -23 23 19 c21 18 27 26 19 26 -2 0 -12 -10 -23 -22z"/>
<path d="M989 313 c-13 -16 -12 -17 4 -4 9 7 17 15 17 17 0 8 -8 3 -21 -13z"/>
</g>
</svg>
